<?xml version="1.0" encoding="utf-8"?>
<!-- Generator: Adobe Illustrator 27.0.0, SVG Export Plug-In . SVG Version: 6.00 Build 0)  -->
<svg version="1.1" id="Calque_1" xmlns="http://www.w3.org/2000/svg" xmlns:xlink="http://www.w3.org/1999/xlink" x="0px" y="0px"
	 viewBox="0 0 27.6238956 26.8092918" style="enable-background:new 0 0 27.6238956 26.8092918;" xml:space="preserve">
<path d="M16.8241768,20.9068108c0.5789986-0.7909985,1.059-1.8349991,1.4099998-3.0569992
	c0.7110004,0.2360001,1.3610001,0.5349998,1.9359989,0.887001C19.2551765,19.7098122,18.1121769,20.4608116,16.8241768,20.9068108
	 M8.0681763,18.7368126c0.5740004-0.3530006,1.2250004-0.651001,1.9360008-0.887001
	c0.3499994,1.2220001,0.8309994,2.2660007,1.4099998,3.0569992C10.1261768,20.4608116,8.9831762,19.7098122,8.0681763,18.7368126
	 M11.4141769,5.2028122c-0.5790005,0.7910004-1.0600004,1.835-1.4099998,3.0569992
	C9.2931767,8.0238113,8.6421766,7.725812,8.0681763,7.3728123C8.9831762,6.3998127,10.1261768,5.6488132,11.4141769,5.2028122
	 M20.1701756,7.3728123c-0.5749989,0.3519993-1.2249985,0.6509991-1.9359989,0.8869991
	c-0.3509998-1.2219992-0.8310013-2.2659988-1.4099998-3.0569992C18.1121769,5.6488132,19.2551765,6.3998127,20.1701756,7.3728123
	 M18.8551769,12.4608116c-0.0320015-1.0780001-0.1470013-2.1049995-0.3380013-3.0489998
	c0.8889999-0.2869997,1.7049999-0.6599998,2.4110012-1.1110001c0.8369999,1.1960001,1.3640003,2.6199999,1.4729996,4.1599998
	H18.8551769z M14.7131767,16.0428123v-2.394001h2.9539986c-0.0310001,0.9829998-0.1339989,1.9029999-0.2989998,2.7370014
	C16.5191765,16.1948128,15.6261768,16.0778122,14.7131767,16.0428123 M14.7131767,21.2268124v-3.9969997
	c0.8179998,0.0339985,1.6149998,0.1389999,2.3719997,0.3069992C16.5191765,19.4838123,15.6251764,20.8148117,14.7131767,21.2268124
	 M13.525176,17.2298126v3.9969997c-0.9119997-0.4120007-1.8059998-1.743-2.3719997-3.6900005
	C11.9101763,17.3678112,12.7071762,17.2638111,13.525176,17.2298126 M10.5711765,13.6488113h2.9539995v2.394001
	c-0.9129992,0.0349998-1.8059998,0.1520004-2.6549997,0.3430004C10.7051764,15.5518112,10.6021767,14.6318111,10.5711765,13.6488113
	 M13.525176,10.0668116v2.3940001h-2.9539995c0.0310001-0.9829998,0.1339998-1.9029999,0.2989998-2.7369995
	C11.7191763,9.9148121,12.6121769,10.0318117,13.525176,10.0668116 M13.525176,4.8828125v3.9969988
	c-0.8179998-0.0339994-1.6149998-0.1379995-2.3719997-0.3069992C11.7191763,6.6258116,12.6131763,5.2948132,13.525176,4.8828125
	 M14.7131767,8.8798113V4.8828125c0.9119997,0.4120007,1.8059998,1.7429991,2.3719997,3.6899996
	C16.3281765,8.7408113,15.5311766,8.8458118,14.7131767,8.8798113 M14.7131767,10.0668116
	c0.9130001-0.0349998,1.8059998-0.1519995,2.6549988-0.3429995c0.1650009,0.8339996,0.2679996,1.7539997,0.2989998,2.7369995
	h-2.9539986V10.0668116z M7.3101764,8.3008118C8.0161762,8.751812,8.8321762,9.1248121,9.7211771,9.4118118
	c-0.1910009,0.9440002-0.3060007,1.9709997-0.3380003,3.0489998h-3.546
	C5.9461761,10.9208117,6.4731765,9.4968119,7.3101764,8.3008118 M5.8371768,13.6488113h3.546
	c0.0319996,1.0780001,0.1469994,2.1050005,0.3380003,3.0489998c-0.8890009,0.2870007-1.7050009,0.6600018-2.4110007,1.1110001
	C6.4731765,16.612812,5.9461761,15.1888113,5.8371768,13.6488113 M20.9281769,17.8088112
	c-0.7060013-0.4509983-1.5220013-0.8239994-2.4110012-1.1110001c0.191-0.9439993,0.3059998-1.9709997,0.3380013-3.0489998h3.5459995
	C22.2921772,15.1888113,21.7651768,16.612812,20.9281769,17.8088112 M14.1191769,3.5548117c-5.2379999,0-9.5,4.2620001-9.5,9.5
	s4.2620006,9.5,9.5,9.5s9.5-4.2619991,9.5-9.5S19.3571758,3.5548117,14.1191769,3.5548117"/>
</svg>
